<svg width="56" height="79" viewBox="0 0 56 79" fill="none" xmlns="http://www.w3.org/2000/svg">
<path d="M28.0302 78.5231L5.21556 72.2711L0.131348 15.9803H55.9974L50.9078 72.2626L28.0302 78.5231Z" fill="#4353AD"/>
<path d="M46.5506 68.6788L50.8995 20.5832H28.0643V73.7378L46.5506 68.6788Z" fill="#485FB5"/>
<path d="M28.0644 59.3905L28.0337 59.3983L20.2448 57.3222L19.7468 51.8162H12.726L13.7058 62.6562L28.0322 66.5822L28.0644 66.5734V59.3905ZM10.5272 27.4869L11.163 34.3906H28.0644V27.4869H10.5272ZM11.7868 41.4602L12.4136 48.3641H28.0644V41.4602H11.7868Z" fill="#EDEDED"/>
<path d="M33.6089 0.682636H42.0798V3.7232H37.1515V4.33159H42.0798V11.3248H33.6089V8.13193H38.5375V7.52401H33.6092V0.682636H33.6089ZM23.444 0.682636H31.9146V3.7232H26.9864V4.33159H31.9146V11.3248H23.4443V8.13193H28.3726V7.52401H23.4438V0.682636H23.444ZM13.2792 0.682636H21.7497V4.17926H16.8216V7.67635H21.7501V11.173H13.2792V0.682636Z" fill="white"/>
<path d="M44.2973 41.4605L45.5597 27.4872H28.0403V34.3908H37.8952L37.259 41.4605H28.0403V48.3644H36.6525L35.8402 57.3184L28.04 59.3964V66.579L42.3777 62.6565L42.4827 61.4903L44.1267 43.3144L44.2973 41.4605Z" fill="white"/>
</svg>
