<svg width="30" height="30" viewBox="0 0 30 30" fill="none" xmlns="http://www.w3.org/2000/svg">
<path d="M25.6057 0L4.39478 0C1.97183 0 0.000244141 1.97159 0.000244141 4.39453L0.000244141 25.6055C0.000244141 28.0284 1.97183 30 4.39478 30L13.2424 30L13.2424 19.3945L9.72681 19.3945L9.72681 14.1211H13.2424V10.5469C13.2424 7.63893 15.6079 5.27344 18.5159 5.27344L23.8479 5.27344V10.5469H18.5159L18.5159 14.1211H23.8479L22.969 19.3945H18.5159V30H25.6057C28.0287 30 30.0002 28.0284 30.0002 25.6055L30.0002 4.39453C30.0002 1.97159 28.0287 0 25.6057 0Z" fill="white"/>
</svg>
