<svg width="57" height="79" viewBox="0 0 57 79" fill="none" xmlns="http://www.w3.org/2000/svg">
<path d="M5.49348 72.2711L0.434326 15.98H56.0266L50.9619 72.2622L28.1964 78.5231L5.49348 72.2711Z" fill="#E53D20"/>
<path d="M28.2305 73.7376L46.6261 68.6785L50.9542 20.5827H28.2305V73.7376Z" fill="#F15123"/>
<path d="M28.2304 41.4604H19.0211L18.3851 34.3906H28.2304V27.4867H28.2063H10.7791L10.9457 29.3389L12.6562 48.364H28.2304V41.4604Z" fill="#EDEDED"/>
<path d="M28.2305 59.3902L28.2 59.3983L20.4491 57.3221L19.9535 51.816H16.1872H12.9672L13.9423 62.656L28.1984 66.5819L28.2305 66.5731V59.3902Z" fill="#EDEDED"/>
<path d="M5.60657 0.682653H9.1434V4.14898H12.3786V0.682653H15.9156V11.1796H12.3788V7.66465H9.14356V11.1796H5.60682V0.682653H5.60657Z" fill="white"/>
<path d="M20.5666 4.16361H17.453V0.682653H27.2186V4.16361H24.1036V11.1796H20.5669V4.16361H20.5666Z" fill="white"/>
<path d="M28.7684 0.682653H32.4563L34.7249 4.37093L36.9911 0.682653H40.6804V11.1796H37.1582V5.97671L34.7249 9.70899H34.6641L32.2291 5.97671V11.1796H28.7684V0.682653Z" fill="white"/>
<path d="M42.4406 0.682653H45.9785V7.70993H50.9522V11.1796H42.4406V0.682653Z" fill="white"/>
<path d="M28.2063 41.4604V48.364H36.7762L35.9684 57.3178L28.2063 59.3961V66.5787L42.4738 62.6561L42.5784 61.4898L44.2139 43.3142L44.3837 41.4604H42.5083H28.2063Z" fill="white"/>
<path d="M28.2063 27.4868V34.3907H44.9946H45.0169L45.1565 32.8388L45.4736 29.3389L45.6401 27.4868H28.2063Z" fill="white"/>
</svg>
