<svg width="30" height="30" viewBox="0 0 30 30" fill="none" xmlns="http://www.w3.org/2000/svg">
<path d="M0.000243239 9.375L0.000243731 20.625C0.000243957 25.8019 4.19837 30 9.37524 30L20.6252 30C25.8021 30 30.0002 25.8019 30.0002 20.625L30.0002 9.375C30.0002 4.19813 25.8021 7.79513e-07 20.6252 1.0058e-06L9.37524 1.49755e-06C4.19837 1.72384e-06 0.000243013 4.19813 0.000243239 9.375ZM20.6252 2.8125C24.244 2.8125 27.1877 5.75625 27.1877 9.375L27.1877 20.625C27.1877 24.2437 24.244 27.1875 20.6252 27.1875L9.37524 27.1875C5.75649 27.1875 2.81274 24.2437 2.81274 20.625L2.81274 9.375C2.81274 5.75625 5.75649 2.8125 9.37524 2.8125L20.6252 2.8125Z" fill="white"/>
<path d="M7.50024 15C7.50024 19.1419 10.8584 22.5 15.0002 22.5C19.1421 22.5 22.5002 19.1419 22.5002 15C22.5002 10.8581 19.1421 7.5 15.0002 7.5C10.8584 7.5 7.50024 10.8581 7.50024 15ZM19.6877 15C19.6877 17.5837 17.584 19.6875 15.0002 19.6875C12.4146 19.6875 10.3127 17.5838 10.3127 15C10.3127 12.4163 12.4146 10.3125 15.0002 10.3125C17.584 10.3125 19.6877 12.4162 19.6877 15Z" fill="white"/>
<path d="M7.9371 6.93715C7.9371 6.38521 7.48966 5.93777 6.93773 5.93777C6.38579 5.93777 5.93835 6.38521 5.93835 6.93715C5.93835 7.48909 6.38579 7.93652 6.93773 7.93652C7.48966 7.93652 7.9371 7.48909 7.9371 6.93715Z" fill="white"/>
</svg>
