<svg width="197" height="45" viewBox="0 0 197 45" fill="none" xmlns="http://www.w3.org/2000/svg">
<path fill-rule="evenodd" clip-rule="evenodd" d="M188.008 3.8869L196.225 3.93142C196.225 3.93142 180.948 24.3438 179.7 26.0074C179.295 26.5461 178.68 27.1271 178.368 27.8472C177.579 29.6578 176.769 33.6291 176.769 33.6291L169.25 33.6658C169.25 33.6658 170.42 29.5264 170.372 27.3215C170.329 25.3952 169.332 23.4715 168.773 21.5396C168.208 19.5844 167.44 15.7578 167.44 15.7578H175.17L176.236 19.9628L188.008 3.8869Z" fill="white"/>
<path fill-rule="evenodd" clip-rule="evenodd" d="M172.448 8.19172C173.965 9.09328 174.895 14.0656 174.895 14.0656C174.895 14.0656 166.961 14.181 162.643 14.181H158.911L154.381 33.629H147.451C147.451 33.629 151.763 12.494 152.782 8.66216C153.112 7.42187 155.042 7.63446 158.301 7.63446H163.506C166.867 7.63446 170.796 7.2115 172.448 8.19172Z" fill="white"/>
<path fill-rule="evenodd" clip-rule="evenodd" d="M140.188 17.6635C140.188 17.6635 140.404 16.415 139.455 14.9696C138.645 13.7371 137.897 13.4507 135.764 13.385C129.743 13.1984 129.86 17.5978 129.86 17.5978L140.188 17.6635ZM146.718 12.6255C147.601 15.7635 145.919 23.1378 145.919 23.1378C145.919 23.1378 137.136 22.9931 132.326 23.1378C130.83 23.1827 129.04 22.9775 128.595 23.6635C127.968 24.6252 128.823 26.1051 129.549 26.7303C130.383 27.4504 132.008 27.532 132.592 27.6055C136.497 28.0945 144.669 27.7316 144.669 27.7316L143.253 33.9127C143.253 33.9127 131.705 34.4833 125.929 33.1243C124.789 32.8564 123.72 32.3151 122.998 31.5475C122.8 31.3375 122.63 31.0511 122.443 30.804C122.294 30.6066 121.86 29.9577 121.665 29.445C120.346 25.9786 121.819 19.3375 123.264 15.7791C123.432 15.3666 123.642 14.8438 123.864 14.3993C124.141 13.845 124.375 13.2195 124.597 12.8882C124.746 12.6597 124.93 12.5124 125.085 12.2968C125.263 12.0419 125.471 11.7948 125.663 11.5745C126.196 10.9645 126.801 10.5334 127.528 9.99765C129.935 8.22087 134.29 6.84108 139.522 7.3694C141.492 7.56901 144.466 8.2628 145.919 10.2603C146.308 10.7938 146.5 11.8527 146.718 12.6255Z" fill="white"/>
<path fill-rule="evenodd" clip-rule="evenodd" d="M114.935 7.6108L121.654 7.57147C121.654 7.57147 117.91 25.0877 116.001 33.6291H108.272C102.87 33.6291 98.0588 34.2888 96.0119 30.4751C94.0264 26.7724 95.9213 20.683 96.8115 16.5462C97.4406 13.6186 98.7654 7.63454 98.7654 7.63454L105.727 7.57147C105.727 7.57147 103.76 16.8879 102.941 21.5397C102.648 23.2059 102.044 24.7749 102.675 26.0074C103.275 27.1798 104.114 27.2637 106.673 27.3215C107.483 27.3401 110.138 27.3215 110.138 27.3215L114.935 7.6108Z" fill="white"/>
<path fill-rule="evenodd" clip-rule="evenodd" d="M83.4853 20.2255C84.1889 17.7605 85.2149 15.0877 85.0844 12.8668C84.9433 10.4913 82.9231 8.32826 81.6198 7.87377C77.6939 6.50696 74.0187 8.41767 72.558 9.97592C70.6681 11.9946 70.0285 14.352 69.3595 17.5976C68.8613 20.0073 68.4534 22.5514 69.3595 24.4305C70.9638 27.7526 75.9665 27.0273 81.353 27.0588C82.1526 24.9459 82.8137 22.5725 83.4853 20.2255ZM92.8138 10.5016C93.5814 16.0049 90.6364 22.0787 88.608 27.3608C90.6763 27.5448 92.4887 27.3322 92.6193 27.4843C92.7551 27.6817 91.2332 33.7893 90.7026 33.8049C89.061 33.8472 83.6215 33.8917 81.353 33.8917C73.9517 33.8917 67.0274 34.3673 63.4963 30.7381C62.0623 29.2637 61.0709 26.7353 60.8309 24.9563C60.4309 21.9863 60.9321 18.717 61.6304 16.0208C62.2621 13.587 63.0722 11.29 64.2958 9.18752C67.4059 3.83419 72.8165 -0.139346 81.8862 0.777795C83.6452 0.956623 86.1717 1.71608 87.7498 2.61727C87.8589 2.68072 88.2404 2.98012 88.3281 3.03281C90.4603 4.37067 92.4033 7.5636 92.8138 10.5016Z" fill="white"/>
<path fill-rule="evenodd" clip-rule="evenodd" d="M60.0659 7.6425C59.6182 9.65301 59.1704 11.9318 58.6986 13.9185H51.2359C51.8142 11.7162 52.2567 9.52687 52.835 7.61096C55.2231 7.61096 57.4434 7.6425 60.0659 7.6425Z" fill="white"/>
<path fill-rule="evenodd" clip-rule="evenodd" d="M50.9695 15.7581H58.1654C57.2248 20.8936 55.3619 29.1772 53.9013 34.9431C52.987 38.5515 52.3767 41.185 49.9032 43.0901C49.6819 43.2612 49.5544 43.1799 49.3704 43.3532C48.9144 43.7817 46.8062 44.2785 45.6391 44.4042C43.7412 44.6068 41.5958 44.4306 39.2638 44.3835C39.8741 42.1837 40.5645 39.5425 41.1082 37.5713C46.7931 38.2495 46.9372 32.9511 48.0377 27.8475C48.6747 24.8987 50.6045 16.9408 50.9695 15.7581Z" fill="white"/>
<path fill-rule="evenodd" clip-rule="evenodd" d="M34.1783 29.1617L34.024 29.5557C31.3959 34.6014 26.7397 37.6975 20.098 37.8341C16.9932 37.8971 14.0346 37.1117 12.1022 36.2573C7.93138 34.4096 4.42354 30.983 2.50764 27.3218C-0.240537 22.0735 -0.736067 14.7727 4.97814 9.31958C5.06619 9.31958 4.28508 10.502 4.37312 10.502L4.21585 11.0066C0.098094 23.7185 12.7843 34.6122 25.1165 33.3663C28.0803 33.0669 31.8598 31.4664 34.1783 29.1617Z" fill="#21609B"/>
<path fill-rule="evenodd" clip-rule="evenodd" d="M26.7156 23.905C29.8182 23.9262 33.0589 22.4963 34.9778 20.4888C33.299 24.6912 28.4378 27.3925 21.9184 26.5333C16.46 25.8131 11.2601 20.3967 10.7243 14.9696C10.3327 11.0198 11.7289 8.66239 14.0294 5.803C13.2298 7.29855 12.9311 8.45202 12.8566 9.18774C11.9825 17.7318 19.7782 23.8605 26.7156 23.905Z" fill="#21609B"/>
<path fill-rule="evenodd" clip-rule="evenodd" d="M34.6663 13.2929C34.184 14.3837 31.4068 16.4439 30.1806 16.7014C25.3246 17.7213 22.2145 15.4507 20.5857 12.867C20.3433 12.4807 19.8956 11.4271 19.8155 11.1588C19.1837 9.04072 19.4742 5.83703 21.3589 4.17861C20.7911 5.75541 20.7083 7.5871 21.0071 8.77767C21.188 9.49781 21.7396 10.7544 22.2916 11.5451C23.2962 12.9853 23.9332 13.3352 25.2234 14.0998C25.8043 14.4441 26.4278 14.7202 26.6972 14.7962C27.9204 15.1509 30.503 16.0866 34.6663 13.2929Z" fill="#21609B"/>
</svg>
