<svg width="80" height="79" viewBox="0 0 80 79" fill="none" xmlns="http://www.w3.org/2000/svg">
<path d="M0.82843 0.682556H79.7694V78.5232H0.82843V0.682556Z" fill="#F7DF1E"/>
<path d="M21.5849 65.7319L27.626 62.1269C28.7915 64.1644 29.8517 65.8884 32.3947 65.8884C34.8323 65.8884 36.3692 64.9481 36.3692 61.2909V36.4189H43.7876V61.3943C43.7876 68.9708 39.2837 72.4194 32.7127 72.4194C26.7782 72.4194 23.3334 69.3886 21.5848 65.7312" fill="white"/>
<path d="M47.8171 64.948L53.8574 61.4994C55.4475 64.06 57.5142 65.9409 61.1703 65.9409C64.2441 65.9409 66.2042 64.4255 66.2042 62.3354C66.2042 59.8273 64.1907 58.9389 60.7992 57.4764L58.9451 56.6921C53.5928 54.4457 50.0423 51.6241 50.0423 45.6674C50.0423 40.181 54.2815 36.0007 60.9055 36.0007C65.6217 36.0007 69.013 37.6206 71.4503 41.853L65.6743 45.5104C64.4025 43.2638 63.0251 42.3757 60.9056 42.3757C58.733 42.3757 57.3552 43.7342 57.3552 45.5104C57.3552 47.7051 58.733 48.5935 61.9121 49.9522L63.7666 50.7359C70.0724 53.4009 73.6229 56.1176 73.6229 62.2308C73.6229 68.8149 68.377 72.4199 61.3294 72.4199C54.4407 72.4199 49.9895 69.1805 47.8172 64.948" fill="white"/>
</svg>
