<svg width="202" height="84" viewBox="0 0 202 84" fill="none" xmlns="http://www.w3.org/2000/svg">
<g filter="url(#filter0_d_1_136)">
<path d="M13.8545 33.9932H16.0957C18.1904 33.9932 19.7578 33.583 20.7979 32.7627C21.8379 31.9277 22.3579 30.7192 22.3579 29.1372C22.3579 27.5405 21.9185 26.3613 21.0396 25.5996C20.1753 24.8379 18.813 24.457 16.9526 24.457H13.8545V33.9932ZM29.2354 28.8955C29.2354 32.3525 28.1514 34.9966 25.9834 36.8276C23.8301 38.6587 20.7612 39.5742 16.7769 39.5742H13.8545V51H7.04297V18.876H17.3042C21.2007 18.876 24.1597 19.7183 26.1812 21.4028C28.2173 23.0728 29.2354 25.5703 29.2354 28.8955ZM40.1118 38.6733C40.1118 41.105 40.5073 42.9434 41.2983 44.1885C42.104 45.4336 43.4077 46.0562 45.2095 46.0562C46.9966 46.0562 48.2783 45.4409 49.0547 44.2104C49.8457 42.9653 50.2412 41.1196 50.2412 38.6733C50.2412 36.2417 49.8457 34.418 49.0547 33.2021C48.2637 31.9863 46.9673 31.3784 45.1655 31.3784C43.3784 31.3784 42.0894 31.9863 41.2983 33.2021C40.5073 34.4033 40.1118 36.2271 40.1118 38.6733ZM57.0967 38.6733C57.0967 42.6724 56.042 45.7998 53.9326 48.0557C51.8232 50.3115 48.8862 51.4395 45.1216 51.4395C42.7632 51.4395 40.6831 50.9268 38.8813 49.9014C37.0796 48.8613 35.6953 47.3745 34.7285 45.4409C33.7617 43.5073 33.2783 41.2515 33.2783 38.6733C33.2783 34.6597 34.3257 31.5396 36.4204 29.313C38.5151 27.0864 41.4595 25.9731 45.2534 25.9731C47.6118 25.9731 49.6919 26.4858 51.4937 27.5112C53.2954 28.5366 54.6797 30.0088 55.6465 31.9277C56.6133 33.8467 57.0967 36.0952 57.0967 38.6733ZM76.3447 25.9731C77.2529 25.9731 78.0073 26.0391 78.6079 26.1709L78.1025 32.4551C77.5605 32.3086 76.9014 32.2354 76.125 32.2354C73.9863 32.2354 72.3164 32.7847 71.1152 33.8833C69.9287 34.9819 69.3354 36.52 69.3354 38.4976V51H62.6338V26.4346H67.7095L68.6982 30.5654H69.0278C69.7896 29.1885 70.8149 28.0825 72.104 27.2476C73.4077 26.3979 74.8213 25.9731 76.3447 25.9731ZM93.4175 46.1001C94.5894 46.1001 95.9956 45.8438 97.6362 45.3311V50.3188C95.9663 51.0659 93.9155 51.4395 91.4839 51.4395C88.8032 51.4395 86.8477 50.7656 85.6172 49.418C84.4014 48.0557 83.7935 46.0195 83.7935 43.3096V31.4663H80.5854V28.6318L84.2769 26.3906L86.2104 21.2051H90.4951V26.4346H97.3726V31.4663H90.4951V43.3096C90.4951 44.2617 90.7588 44.9648 91.2861 45.4189C91.8281 45.873 92.5386 46.1001 93.4175 46.1001ZM116.203 31.4663H110.402V51H103.701V31.4663H100.009V28.2363L103.701 26.4346V24.6328C103.701 21.835 104.389 19.7915 105.766 18.5024C107.143 17.2134 109.348 16.5688 112.38 16.5688C114.694 16.5688 116.752 16.9131 118.554 17.6016L116.84 22.5234C115.493 22.0986 114.248 21.8862 113.105 21.8862C112.153 21.8862 111.464 22.1719 111.04 22.7432C110.615 23.2998 110.402 24.0176 110.402 24.8965V26.4346H116.203V31.4663ZM125.41 38.6733C125.41 41.105 125.805 42.9434 126.596 44.1885C127.402 45.4336 128.706 46.0562 130.507 46.0562C132.294 46.0562 133.576 45.4409 134.353 44.2104C135.144 42.9653 135.539 41.1196 135.539 38.6733C135.539 36.2417 135.144 34.418 134.353 33.2021C133.562 31.9863 132.265 31.3784 130.463 31.3784C128.676 31.3784 127.387 31.9863 126.596 33.2021C125.805 34.4033 125.41 36.2271 125.41 38.6733ZM142.395 38.6733C142.395 42.6724 141.34 45.7998 139.23 48.0557C137.121 50.3115 134.184 51.4395 130.419 51.4395C128.061 51.4395 125.981 50.9268 124.179 49.9014C122.377 48.8613 120.993 47.3745 120.026 45.4409C119.06 43.5073 118.576 41.2515 118.576 38.6733C118.576 34.6597 119.624 31.5396 121.718 29.313C123.813 27.0864 126.757 25.9731 130.551 25.9731C132.91 25.9731 134.99 26.4858 136.792 27.5112C138.593 28.5366 139.978 30.0088 140.944 31.9277C141.911 33.8467 142.395 36.0952 142.395 38.6733ZM154.633 51H147.932V16.8105H154.633V51ZM161.401 20.0845C161.401 17.9019 162.617 16.8105 165.048 16.8105C167.48 16.8105 168.696 17.9019 168.696 20.0845C168.696 21.1245 168.388 21.9375 167.773 22.5234C167.172 23.0947 166.264 23.3804 165.048 23.3804C162.617 23.3804 161.401 22.2817 161.401 20.0845ZM168.388 51H161.687V26.4346H168.388V51ZM180.781 38.6733C180.781 41.105 181.176 42.9434 181.967 44.1885C182.773 45.4336 184.077 46.0562 185.878 46.0562C187.666 46.0562 188.947 45.4409 189.724 44.2104C190.515 42.9653 190.91 41.1196 190.91 38.6733C190.91 36.2417 190.515 34.418 189.724 33.2021C188.933 31.9863 187.636 31.3784 185.834 31.3784C184.047 31.3784 182.758 31.9863 181.967 33.2021C181.176 34.4033 180.781 36.2271 180.781 38.6733ZM197.766 38.6733C197.766 42.6724 196.711 45.7998 194.602 48.0557C192.492 50.3115 189.555 51.4395 185.791 51.4395C183.432 51.4395 181.352 50.9268 179.55 49.9014C177.749 48.8613 176.364 47.3745 175.397 45.4409C174.431 43.5073 173.947 41.2515 173.947 38.6733C173.947 34.6597 174.995 31.5396 177.089 29.313C179.184 27.0864 182.128 25.9731 185.922 25.9731C188.281 25.9731 190.361 26.4858 192.163 27.5112C193.964 28.5366 195.349 30.0088 196.315 31.9277C197.282 33.8467 197.766 36.0952 197.766 38.6733Z" fill="white"/>
<path d="M15.5391 72H14.2266L11.9219 64.3516C11.8125 64.013 11.6901 63.5859 11.5547 63.0703C11.4193 62.5547 11.349 62.2448 11.3438 62.1406C11.2292 62.8281 11.0469 63.5807 10.7969 64.3984L8.5625 72H7.25L4.21094 60.5781H5.61719L7.42188 67.6328C7.67188 68.6224 7.85417 69.5182 7.96875 70.3203C8.10938 69.3672 8.31771 68.4349 8.59375 67.5234L10.6406 60.5781H12.0469L14.1953 67.5859C14.4453 68.3932 14.6562 69.3047 14.8281 70.3203C14.9271 69.5807 15.1146 68.6797 15.3906 67.6172L17.1875 60.5781H18.5938L15.5391 72ZM23.8047 72.1562C22.5391 72.1562 21.5391 71.7708 20.8047 71C20.0755 70.2292 19.7109 69.1589 19.7109 67.7891C19.7109 66.4089 20.0495 65.3125 20.7266 64.5C21.4089 63.6875 22.3229 63.2812 23.4688 63.2812C24.5417 63.2812 25.3906 63.6354 26.0156 64.3438C26.6406 65.0469 26.9531 65.9766 26.9531 67.1328V67.9531H21.0547C21.0807 68.9583 21.3333 69.7214 21.8125 70.2422C22.2969 70.763 22.9766 71.0234 23.8516 71.0234C24.7734 71.0234 25.6849 70.8307 26.5859 70.4453V71.6016C26.1276 71.7995 25.6927 71.9401 25.2812 72.0234C24.875 72.112 24.3828 72.1562 23.8047 72.1562ZM23.4531 64.3672C22.7656 64.3672 22.2161 64.5911 21.8047 65.0391C21.3984 65.487 21.1589 66.1068 21.0859 66.8984H25.5625C25.5625 66.0807 25.3802 65.4557 25.0156 65.0234C24.651 64.5859 24.1302 64.3672 23.4531 64.3672ZM33.1562 63.2969C34.2812 63.2969 35.1536 63.6823 35.7734 64.4531C36.3984 65.2188 36.7109 66.3047 36.7109 67.7109C36.7109 69.1172 36.3958 70.2109 35.7656 70.9922C35.1406 71.7682 34.2708 72.1562 33.1562 72.1562C32.599 72.1562 32.0885 72.0547 31.625 71.8516C31.1667 71.6432 30.7812 71.3255 30.4688 70.8984H30.375L30.1016 72H29.1719V59.8438H30.4688V62.7969C30.4688 63.4583 30.4479 64.0521 30.4062 64.5781H30.4688C31.0729 63.724 31.9688 63.2969 33.1562 63.2969ZM32.9688 64.3828C32.0833 64.3828 31.4453 64.638 31.0547 65.1484C30.6641 65.6536 30.4688 66.5078 30.4688 67.7109C30.4688 68.9141 30.6693 69.776 31.0703 70.2969C31.4714 70.8125 32.1146 71.0703 33 71.0703C33.7969 71.0703 34.3906 70.7812 34.7812 70.2031C35.1719 69.6198 35.3672 68.7839 35.3672 67.6953C35.3672 66.5807 35.1719 65.75 34.7812 65.2031C34.3906 64.6562 33.7865 64.3828 32.9688 64.3828ZM48.9688 70.8516H48.8984C48.2995 71.7214 47.4036 72.1562 46.2109 72.1562C45.0911 72.1562 44.2188 71.7734 43.5938 71.0078C42.974 70.2422 42.6641 69.1536 42.6641 67.7422C42.6641 66.3307 42.9766 65.2344 43.6016 64.4531C44.2266 63.6719 45.0964 63.2812 46.2109 63.2812C47.3724 63.2812 48.263 63.7031 48.8828 64.5469H48.9844L48.9297 63.9297L48.8984 63.3281V59.8438H50.1953V72H49.1406L48.9688 70.8516ZM46.375 71.0703C47.2604 71.0703 47.901 70.8307 48.2969 70.3516C48.6979 69.8672 48.8984 69.0885 48.8984 68.0156V67.7422C48.8984 66.5286 48.6953 65.6641 48.2891 65.1484C47.888 64.6276 47.2448 64.3672 46.3594 64.3672C45.599 64.3672 45.0156 64.6641 44.6094 65.2578C44.2083 65.8464 44.0078 66.6797 44.0078 67.7578C44.0078 68.8516 44.2083 69.6771 44.6094 70.2344C45.0104 70.7917 45.599 71.0703 46.375 71.0703ZM56.5703 72.1562C55.3047 72.1562 54.3047 71.7708 53.5703 71C52.8411 70.2292 52.4766 69.1589 52.4766 67.7891C52.4766 66.4089 52.8151 65.3125 53.4922 64.5C54.1745 63.6875 55.0885 63.2812 56.2344 63.2812C57.3073 63.2812 58.1562 63.6354 58.7812 64.3438C59.4062 65.0469 59.7188 65.9766 59.7188 67.1328V67.9531H53.8203C53.8464 68.9583 54.099 69.7214 54.5781 70.2422C55.0625 70.763 55.7422 71.0234 56.6172 71.0234C57.5391 71.0234 58.4505 70.8307 59.3516 70.4453V71.6016C58.8932 71.7995 58.4583 71.9401 58.0469 72.0234C57.6406 72.112 57.1484 72.1562 56.5703 72.1562ZM56.2188 64.3672C55.5312 64.3672 54.9818 64.5911 54.5703 65.0391C54.1641 65.487 53.9245 66.1068 53.8516 66.8984H58.3281C58.3281 66.0807 58.1458 65.4557 57.7812 65.0234C57.4167 64.5859 56.8958 64.3672 56.2188 64.3672ZM63.8125 72L60.5625 63.4375H61.9531L63.7969 68.5156C64.2135 69.7031 64.4583 70.474 64.5312 70.8281H64.5938C64.651 70.5521 64.8307 69.9818 65.1328 69.1172C65.4401 68.2474 66.125 66.3542 67.1875 63.4375H68.5781L65.3281 72H63.8125ZM77.3438 67.7109C77.3438 69.1068 76.9922 70.1979 76.2891 70.9844C75.5859 71.7656 74.6146 72.1562 73.375 72.1562C72.6094 72.1562 71.9297 71.9766 71.3359 71.6172C70.7422 71.2578 70.2839 70.7422 69.9609 70.0703C69.638 69.3984 69.4766 68.612 69.4766 67.7109C69.4766 66.3151 69.8255 65.2292 70.5234 64.4531C71.2214 63.6719 72.1901 63.2812 73.4297 63.2812C74.6276 63.2812 75.5781 63.6797 76.2812 64.4766C76.9896 65.2734 77.3438 66.3516 77.3438 67.7109ZM70.8203 67.7109C70.8203 68.8047 71.0391 69.638 71.4766 70.2109C71.9141 70.7839 72.5573 71.0703 73.4062 71.0703C74.2552 71.0703 74.8984 70.7865 75.3359 70.2188C75.7786 69.6458 76 68.8099 76 67.7109C76 66.6224 75.7786 65.7969 75.3359 65.2344C74.8984 64.6667 74.25 64.3828 73.3906 64.3828C72.5417 64.3828 71.901 64.6615 71.4688 65.2188C71.0365 65.776 70.8203 66.6068 70.8203 67.7109ZM80.9219 72H79.625V59.8438H80.9219V72ZM87.2891 72.1562C86.0234 72.1562 85.0234 71.7708 84.2891 71C83.5599 70.2292 83.1953 69.1589 83.1953 67.7891C83.1953 66.4089 83.5339 65.3125 84.2109 64.5C84.8932 63.6875 85.8073 63.2812 86.9531 63.2812C88.026 63.2812 88.875 63.6354 89.5 64.3438C90.125 65.0469 90.4375 65.9766 90.4375 67.1328V67.9531H84.5391C84.5651 68.9583 84.8177 69.7214 85.2969 70.2422C85.7812 70.763 86.4609 71.0234 87.3359 71.0234C88.2578 71.0234 89.1693 70.8307 90.0703 70.4453V71.6016C89.612 71.7995 89.1771 71.9401 88.7656 72.0234C88.3594 72.112 87.8672 72.1562 87.2891 72.1562ZM86.9375 64.3672C86.25 64.3672 85.7005 64.5911 85.2891 65.0391C84.8828 65.487 84.6432 66.1068 84.5703 66.8984H89.0469C89.0469 66.0807 88.8646 65.4557 88.5 65.0234C88.1354 64.5859 87.6146 64.3672 86.9375 64.3672ZM96.6406 72.1562C96.0833 72.1562 95.5729 72.0547 95.1094 71.8516C94.651 71.6432 94.2656 71.3255 93.9531 70.8984H93.8594C93.9219 71.3984 93.9531 71.8724 93.9531 72.3203V75.8438H92.6562V63.4375H93.7109L93.8906 64.6094H93.9531C94.2865 64.1406 94.6745 63.8021 95.1172 63.5938C95.5599 63.3854 96.0677 63.2812 96.6406 63.2812C97.776 63.2812 98.651 63.6693 99.2656 64.4453C99.8854 65.2214 100.195 66.3099 100.195 67.7109C100.195 69.1172 99.8802 70.2109 99.25 70.9922C98.625 71.7682 97.7552 72.1562 96.6406 72.1562ZM96.4531 64.3828C95.5781 64.3828 94.9453 64.625 94.5547 65.1094C94.1641 65.5938 93.9635 66.3646 93.9531 67.4219V67.7109C93.9531 68.9141 94.1536 69.776 94.5547 70.2969C94.9557 70.8125 95.599 71.0703 96.4844 71.0703C97.224 71.0703 97.8021 70.7708 98.2188 70.1719C98.6406 69.5729 98.8516 68.7474 98.8516 67.6953C98.8516 66.6276 98.6406 65.8099 98.2188 65.2422C97.8021 64.6693 97.2135 64.3828 96.4531 64.3828ZM106.086 72.1562C104.82 72.1562 103.82 71.7708 103.086 71C102.357 70.2292 101.992 69.1589 101.992 67.7891C101.992 66.4089 102.331 65.3125 103.008 64.5C103.69 63.6875 104.604 63.2812 105.75 63.2812C106.823 63.2812 107.672 63.6354 108.297 64.3438C108.922 65.0469 109.234 65.9766 109.234 67.1328V67.9531H103.336C103.362 68.9583 103.615 69.7214 104.094 70.2422C104.578 70.763 105.258 71.0234 106.133 71.0234C107.055 71.0234 107.966 70.8307 108.867 70.4453V71.6016C108.409 71.7995 107.974 71.9401 107.562 72.0234C107.156 72.112 106.664 72.1562 106.086 72.1562ZM105.734 64.3672C105.047 64.3672 104.497 64.5911 104.086 65.0391C103.68 65.487 103.44 66.1068 103.367 66.8984H107.844C107.844 66.0807 107.661 65.4557 107.297 65.0234C106.932 64.5859 106.411 64.3672 105.734 64.3672ZM115.359 63.2812C115.74 63.2812 116.081 63.3125 116.383 63.375L116.203 64.5781C115.849 64.5 115.536 64.4609 115.266 64.4609C114.573 64.4609 113.979 64.7422 113.484 65.3047C112.995 65.8672 112.75 66.5677 112.75 67.4062V72H111.453V63.4375H112.523L112.672 65.0234H112.734C113.052 64.4661 113.435 64.0365 113.883 63.7344C114.331 63.4323 114.823 63.2812 115.359 63.2812Z" fill="white"/>
</g>
<defs>
<filter id="filter0_d_1_136" x="0.210938" y="16.5688" width="201.555" height="67.2749" filterUnits="userSpaceOnUse" color-interpolation-filters="sRGB">
<feFlood flood-opacity="0" result="BackgroundImageFix"/>
<feColorMatrix in="SourceAlpha" type="matrix" values="0 0 0 0 0 0 0 0 0 0 0 0 0 0 0 0 0 0 127 0" result="hardAlpha"/>
<feOffset dy="4"/>
<feGaussianBlur stdDeviation="2"/>
<feComposite in2="hardAlpha" operator="out"/>
<feColorMatrix type="matrix" values="0 0 0 0 0 0 0 0 0 0 0 0 0 0 0 0 0 0 0.25 0"/>
<feBlend mode="normal" in2="BackgroundImageFix" result="effect1_dropShadow_1_136"/>
<feBlend mode="normal" in="SourceGraphic" in2="effect1_dropShadow_1_136" result="shape"/>
</filter>
</defs>
</svg>
