<svg width="195" height="54" viewBox="0 0 195 54" fill="none" xmlns="http://www.w3.org/2000/svg">
<path fill-rule="evenodd" clip-rule="evenodd" d="M181.45 22.4111C181.275 22.4452 181.1 22.82 181.1 23.0243C181.065 24.3867 181.029 27.9974 181.029 30.4497C181.029 30.5179 181.134 30.654 181.24 30.654C181.765 30.6881 183.026 30.7222 184.111 30.7222C185.617 30.7222 186.493 30.5179 186.983 30.3136C188.244 29.7005 188.84 28.3719 188.84 26.9072C188.84 23.6033 186.458 22.3429 182.921 22.3429C182.675 22.3091 181.975 22.3091 181.45 22.4111ZM190.486 37.6368C190.486 34.2648 187.929 32.3912 183.306 32.3912C183.096 32.3912 181.625 32.3571 181.275 32.4253C181.169 32.4594 181.029 32.5276 181.029 32.6299C181.029 35.0481 180.994 38.8972 181.1 40.3957C181.169 41.043 181.66 41.9627 182.255 42.2352C182.885 42.5759 184.322 42.6437 185.302 42.6437C188.069 42.6437 190.486 41.1453 190.486 37.6368ZM174.305 20.5378C174.655 20.5378 175.706 20.6398 178.403 20.6398C180.959 20.6398 182.991 20.5719 185.477 20.5719C188.524 20.5719 192.727 21.6278 192.727 26.0556C192.727 28.2358 191.151 29.973 189.085 30.8245C188.98 30.8586 188.98 30.9265 189.085 30.9606C192.027 31.676 194.619 33.4473 194.619 36.7853C194.619 40.0553 192.517 42.1329 189.47 43.4274C187.614 44.2107 185.302 44.4832 182.956 44.4832C181.169 44.4832 176.371 44.2789 173.71 44.3471C173.43 44.2448 173.955 43.0185 174.2 42.8142C174.83 42.7801 175.321 42.746 175.986 42.5418C176.932 42.3034 177.037 42.0309 177.177 40.6344C177.247 39.4422 177.247 35.2183 177.247 32.221C177.247 28.0994 177.282 25.3064 177.247 23.944C177.212 22.8882 176.827 22.5475 176.056 22.3429C175.461 22.2409 174.48 22.1045 173.675 22.0025C173.499 21.832 174.095 20.6739 174.305 20.5378ZM154.097 41.7243C154.937 42.3713 156.583 42.6437 158.054 42.6437C159.946 42.6437 161.837 42.3034 163.658 40.7023C165.514 39.0674 166.81 36.5469 166.81 32.5276C166.81 28.6784 165.304 25.5448 162.222 23.7056C160.471 22.6495 158.229 22.2068 155.638 22.2068C154.867 22.2068 154.132 22.2409 153.676 22.4452C153.571 22.5134 153.326 22.82 153.326 22.9902C153.256 23.6715 153.256 28.9168 153.256 31.9826C153.256 35.1504 153.256 39.5783 153.326 40.0891C153.326 40.6003 153.571 41.3836 154.097 41.7243ZM146.146 20.5378C146.812 20.5378 149.368 20.6398 150.594 20.6398C152.801 20.6398 154.377 20.5378 158.544 20.5378C162.047 20.5378 164.989 21.4576 167.09 23.1944C169.647 25.3405 170.978 28.304 170.978 31.9144C170.978 37.0577 168.561 40.0212 166.144 41.7243C163.728 43.4615 160.576 44.4832 156.093 44.4832C153.711 44.4832 149.614 44.415 146.216 44.3809H146.181C146.006 44.0747 146.461 42.8824 146.742 42.8483C147.652 42.746 147.897 42.7119 148.353 42.5418C149.088 42.2693 149.228 41.8945 149.334 40.6344C149.439 38.2841 149.403 35.457 149.403 32.2551C149.403 29.973 149.439 25.5107 149.368 24.0801C149.264 22.8882 148.738 22.5816 147.687 22.377C147.162 22.275 146.461 22.1386 145.481 22.0366C145.341 21.7979 145.971 20.7421 146.146 20.5378Z" fill="#C5B199"/>
<path fill-rule="evenodd" clip-rule="evenodd" d="M103.769 43.0529C102.893 42.9506 102.263 42.8145 101.492 42.4738C101.387 42.4056 101.212 42.0652 101.212 41.9288C101.142 40.7366 101.142 37.3305 101.142 35.0483C101.142 33.2089 100.827 31.6081 100.021 30.4841C99.0752 29.1895 97.7094 28.4403 95.9582 28.4403C94.4171 28.4403 92.3508 29.4623 90.6347 30.8929C90.5996 30.9267 90.3195 31.1654 90.3545 30.7906C90.3545 30.4159 90.4246 29.6666 90.4597 29.1558C90.4948 28.6787 90.2146 28.4403 90.2146 28.4403C89.0936 28.9853 85.9416 29.7007 84.7859 29.8027C83.9454 29.9732 83.7353 30.7565 84.6109 31.029H84.6459C85.5913 31.3015 86.2218 31.6081 86.712 31.9147C87.0623 32.1871 87.0272 32.5619 87.0272 32.8685C87.0623 35.4231 87.0623 39.3401 86.9574 41.4862C86.9224 42.3377 86.6773 42.644 86.0468 42.7804L86.1166 42.7463C85.6264 42.8486 85.241 42.9506 84.6456 43.0188C84.4356 43.223 84.4356 44.3133 84.6456 44.5517C85.031 44.5517 87.0623 44.4494 88.7436 44.4494C91.0551 44.4494 92.2459 44.5517 92.8413 44.5517C93.0864 44.2792 93.1565 43.2571 93.0163 43.0188C92.3508 42.9847 91.8606 42.9168 91.4054 42.7804C90.7749 42.644 90.5996 42.3377 90.5646 41.6223C90.4948 39.8169 90.4948 36.0022 90.4948 33.4135C90.4948 32.698 90.7048 32.3573 90.9149 32.153C91.7203 31.472 93.0163 30.9949 94.172 30.9949C95.2927 30.9949 96.0284 31.3356 96.5887 31.7786C97.3591 32.3914 97.6042 33.2771 97.7094 33.9243C97.8844 35.389 97.8146 38.2843 97.8146 40.8048C97.8146 42.1672 97.7094 42.5079 97.1841 42.6781C96.939 42.7804 96.3085 42.9168 95.5729 42.9847C95.3278 43.223 95.3979 44.2792 95.5729 44.5176C96.5887 44.5176 97.7795 44.4153 99.5306 44.4153C101.702 44.4153 103.103 44.5176 103.663 44.5176C103.838 44.3133 103.908 43.3253 103.768 43.0529H103.769ZM113.47 30.0414C111.614 30.0414 110.458 31.4379 110.458 33.6177C110.458 35.8317 111.473 38.3863 114.346 38.3863C114.836 38.3863 115.746 38.182 116.166 37.7053C116.832 37.0921 117.287 35.8658 117.287 34.5716C117.287 31.7445 115.851 30.0414 113.47 30.0414ZM113.225 45.0966C112.524 45.0966 112.034 45.3009 111.719 45.4714C110.248 46.3908 109.582 47.2765 109.582 48.3326C109.582 49.3202 109.967 50.1036 110.808 50.7849C111.824 51.6365 113.225 52.0453 115.011 52.0453C118.583 52.0453 120.159 50.1718 120.159 48.3326C120.159 47.0381 119.494 46.1865 118.128 45.7098C117.147 45.3009 115.361 45.0966 113.225 45.0966ZM113.47 53.9527C111.333 53.9527 109.792 53.5097 108.462 52.5221C107.166 51.5683 106.605 50.1377 106.605 49.15C106.605 48.8776 106.675 48.128 107.306 47.447C107.691 47.0381 108.531 46.2547 110.528 44.9264C110.598 44.8923 110.633 44.8582 110.633 44.79C110.633 44.7218 110.563 44.6536 110.493 44.6199C108.847 44.0067 108.356 43.0188 108.216 42.4738V42.4056C108.181 42.2013 108.111 41.997 108.427 41.7924C108.672 41.6223 109.022 41.418 109.407 41.1796C110.002 40.8389 110.633 40.4642 111.018 40.1576C111.088 40.0894 111.088 40.0215 111.088 39.9533C111.088 39.8851 111.018 39.8169 110.948 39.7831C108.497 38.9995 107.271 37.2282 107.271 34.5716C107.271 32.8344 108.076 31.2674 109.512 30.2798C110.493 29.5302 112.944 28.6108 114.556 28.6108H114.661C116.307 28.6446 117.217 28.9853 118.513 29.4282C119.214 29.6666 119.879 29.7686 120.79 29.7686C122.156 29.7686 122.751 29.36 123.241 28.8833C123.276 28.9512 123.346 29.1217 123.381 29.5643C123.416 30.0073 123.276 30.6542 122.926 31.1313C122.646 31.5058 122.016 31.7786 121.385 31.7786H121.21C120.579 31.7104 120.299 31.6422 120.299 31.6422L120.159 31.7104C120.124 31.7786 120.159 31.8465 120.194 31.9488L120.229 32.017C120.299 32.3235 120.439 33.243 120.439 33.4817C120.439 36.2747 119.284 37.5007 118.058 38.4204C116.867 39.2719 115.501 39.8169 113.96 39.9533C113.925 39.9533 113.785 39.9533 113.47 39.9874C113.295 39.9874 113.05 40.0215 113.014 40.0215H112.979C112.699 40.0894 111.999 40.4301 111.999 41.0091C111.999 41.52 112.314 42.1331 113.82 42.2354C114.135 42.2695 114.45 42.2695 114.801 42.3036C116.797 42.4397 119.284 42.6102 120.439 42.9847C122.05 43.5637 123.066 44.9602 123.066 46.6295C123.066 49.15 121.21 51.5004 118.128 52.9648C116.622 53.612 115.116 53.9527 113.47 53.9527ZM133.433 30.2116C132.697 30.2116 132.032 30.3818 131.542 30.7224C130.176 31.5399 129.475 33.1751 129.475 35.5592C129.475 40.0215 131.787 43.1552 135.079 43.1552C136.06 43.1552 136.83 42.8827 137.496 42.3377C138.511 41.52 139.037 39.8851 139.037 37.603C139.037 33.1751 136.76 30.2116 133.433 30.2116ZM134.064 44.79C128.11 44.79 125.973 40.5324 125.973 36.5471C125.973 33.7541 127.129 31.6081 129.44 30.0752C131.087 29.0876 133.048 28.5426 134.799 28.5426C139.352 28.5426 142.539 31.7104 142.539 36.2747C142.539 39.3742 141.278 41.8265 138.862 43.3253C137.706 44.0746 135.71 44.79 134.063 44.79H134.064ZM71.6523 30.2116C70.9167 30.2116 70.2515 30.3818 69.7609 30.7224C68.3951 31.5399 67.6946 33.1751 67.6946 35.5592C67.6946 40.0215 70.006 43.1552 73.2983 43.1552C74.279 43.1552 75.0494 42.8827 75.7149 42.3377C76.7304 41.52 77.256 39.8851 77.256 37.603C77.256 33.1751 75.0143 30.2116 71.6523 30.2116ZM72.2828 44.79C66.3288 44.79 64.1923 40.5324 64.1923 36.5471C64.1923 33.7541 65.348 31.6081 67.6595 30.0752C69.3058 29.0876 71.267 28.5426 73.0181 28.5426C77.5713 28.5426 80.7583 31.7104 80.7583 36.2747C80.7583 39.3742 79.4974 41.8265 77.0807 43.3253C75.96 44.0746 73.9638 44.79 72.2828 44.79ZM32.2513 44.4494C32.1812 44.3474 32.1111 44.0408 32.1461 43.666C32.1461 43.3935 32.2163 43.223 32.2513 43.1552C32.9866 43.0529 33.372 42.9506 33.7921 42.8486C34.4927 42.6781 34.7728 42.3036 34.8079 41.4521C34.9131 39.4083 34.9131 35.5251 34.878 32.8344V32.7662C34.878 32.4596 34.878 32.0848 34.4927 31.8124C33.9323 31.472 33.2668 31.1654 32.3912 30.9267C32.076 30.8247 31.866 30.6542 31.901 30.45C31.901 30.2457 32.1111 30.0073 32.5666 29.9391C33.7223 29.8368 36.734 29.1217 37.9248 28.6108C37.995 28.6787 38.1001 28.8833 38.1001 29.1558L38.0651 29.5302C38.03 29.905 37.995 30.348 37.995 30.7906C37.995 30.9267 38.1352 31.029 38.2751 31.029C38.3452 31.029 38.4154 30.9949 38.4855 30.9608C40.7269 29.2577 42.7582 28.6446 43.8087 28.6446C45.5251 28.6446 46.8558 29.4282 47.8717 31.0631C47.9415 31.1654 48.0116 31.1992 48.1168 31.1992C48.1869 31.1992 48.2918 31.1654 48.3268 31.0972C50.3932 29.5643 52.4596 28.6446 53.8253 28.6446C57.0825 28.6446 59.009 30.9949 59.009 34.9801C59.009 36.1042 59.009 37.5689 58.9739 38.8975C58.9739 40.0894 58.9388 41.1796 58.9388 41.9629C58.9388 42.1331 59.184 42.6781 59.5693 42.7804C60.0595 43.0188 60.7251 43.1211 61.6006 43.2571H61.6357C61.7058 43.4955 61.5656 44.3812 61.4256 44.5517C61.2153 44.5517 60.9 44.5517 60.5501 44.5176C59.8845 44.4835 58.9388 44.4494 57.8883 44.4494C55.7167 44.4494 54.5961 44.4835 53.5101 44.5517C53.4403 44.2792 53.4053 43.4617 53.5101 43.2571C54.1406 43.1552 54.4558 43.0529 54.8412 42.9506C55.5418 42.7463 55.7167 42.4397 55.7518 41.5541C55.7518 40.9071 55.8917 35.389 55.6817 34.0604C55.4716 32.698 54.4207 31.0972 52.1093 31.0972C51.2337 31.0972 49.8679 31.4379 48.5369 32.4255C48.4671 32.4937 48.3969 32.6639 48.3969 32.7662V32.8003C48.5369 33.5154 48.5369 34.3332 48.5369 35.5933V37.8072C48.5369 39.3401 48.5018 40.7707 48.5369 41.8606C48.5369 42.6102 48.9923 42.7804 49.3777 42.9168C49.5877 42.9506 49.7277 42.9847 49.903 43.0188C50.2182 43.087 50.5334 43.1552 51.0237 43.2571C51.0938 43.3935 51.0938 43.8362 50.9886 44.211C50.9535 44.4153 50.8834 44.5176 50.8487 44.5517C49.6579 44.5176 48.432 44.4835 46.6458 44.4835C46.1205 44.4835 45.2099 44.5176 44.4392 44.5176C43.8087 44.5176 43.2133 44.5517 42.8633 44.5517C42.8283 44.4835 42.7582 44.2451 42.7582 43.8703C42.7582 43.5637 42.8283 43.3253 42.8984 43.2571C43.0734 43.223 43.2133 43.1893 43.3886 43.1893C43.8087 43.1211 44.159 43.0529 44.5093 42.9847C45.1047 42.8145 45.3147 42.5079 45.3498 41.7587C45.455 40.0556 45.5599 35.1847 45.3147 33.9584C44.8947 31.9829 43.7389 30.9949 41.8826 30.9949C40.797 30.9949 39.4309 31.5058 38.3102 32.3235C38.1352 32.4596 37.995 32.8003 37.995 33.1069V35.1165C37.995 37.5689 37.995 40.6346 38.03 41.9629C38.0651 42.3715 38.205 42.8486 39.0108 43.0188C39.1858 43.0529 39.4659 43.1211 39.8162 43.1552L40.4467 43.2571C40.5168 43.4617 40.4817 44.2792 40.3415 44.5517C39.9912 44.5517 39.5711 44.5176 39.0806 44.5176C38.3452 44.4835 37.3996 44.4494 36.349 44.4494C35.1231 44.4494 34.2476 44.4835 33.547 44.5176C33.0568 44.4494 32.6714 44.4494 32.2513 44.4494Z" fill="#896D60"/>
<path fill-rule="evenodd" clip-rule="evenodd" d="M13.8289 52.6241L12.393 52.147C12.393 52.147 12.5684 45.0281 9.94164 44.5173C8.1905 42.5417 10.2218 -39.2748 16.5258 44.2448C16.5258 44.2448 14.3546 45.3006 13.9692 47.106C13.5488 48.8773 13.8289 52.6241 13.8289 52.6241Z" fill="white"/>
<path fill-rule="evenodd" clip-rule="evenodd" d="M13.8289 52.6241L12.393 52.147C12.393 52.147 12.5684 45.0281 9.94164 44.5173C8.1905 42.5417 10.2218 -39.2748 16.5258 44.2448C16.5258 44.2448 14.3546 45.3006 13.9692 47.106C13.5488 48.8773 13.8289 52.6241 13.8289 52.6241Z" fill="#A6A385"/>
<path fill-rule="evenodd" clip-rule="evenodd" d="M14.5997 45.7437C14.5997 45.7437 27.1729 37.7051 24.2309 20.9806C21.3942 8.82068 14.7045 4.83547 13.9692 3.30257C13.1638 2.21265 12.393 0.305298 12.393 0.305298L12.9186 34.1285C12.9186 34.1626 11.8327 44.4833 14.5997 45.7437Z" fill="white"/>
<path fill-rule="evenodd" clip-rule="evenodd" d="M14.5997 45.7437C14.5997 45.7437 27.1729 37.7051 24.2309 20.9806C21.3942 8.82068 14.7045 4.83547 13.9692 3.30257C13.1638 2.21265 12.393 0.305298 12.393 0.305298L12.9186 34.1285C12.9186 34.1626 11.8327 44.4833 14.5997 45.7437Z" fill="#499D4A"/>
<path fill-rule="evenodd" clip-rule="evenodd" d="M11.6577 46.1864C11.6577 46.1864 -0.145118 38.3521 0.55547 24.5573C1.22067 10.7622 9.55628 3.98398 11.1672 2.75766C12.2181 1.66774 12.2531 1.25886 12.3232 0.168945C13.0586 1.70184 12.9186 23.0926 13.0235 25.6131C13.3387 35.3207 12.4632 44.3473 11.6577 46.1864Z" fill="white"/>
<path fill-rule="evenodd" clip-rule="evenodd" d="M11.6577 46.1864C11.6577 46.1864 -0.145118 38.3521 0.55547 24.5573C1.22067 10.7622 9.55628 3.98398 11.1672 2.75766C12.2181 1.66774 12.2531 1.25886 12.3232 0.168945C13.0586 1.70184 12.9186 23.0926 13.0235 25.6131C13.3387 35.3207 12.4632 44.3473 11.6577 46.1864Z" fill="#58AA50"/>
</svg>
