<svg width="127" height="79" viewBox="0 0 127 79" fill="none" xmlns="http://www.w3.org/2000/svg">
<path d="M62.997 78.2045C62.5693 78.2045 62.1701 78.0899 61.7995 77.8894L58.0075 75.6259C57.4372 75.3108 57.7224 75.1961 57.8934 75.1388C58.6632 74.881 58.8058 74.8237 59.6041 74.3653C59.6896 74.308 59.8037 74.3366 59.8892 74.3939L62.7974 76.1416C62.9114 76.1989 63.054 76.1989 63.1395 76.1416L74.5156 69.5232C74.6296 69.4659 74.6867 69.3513 74.6867 69.2081V55.9999C74.6867 55.8566 74.6296 55.742 74.5156 55.6847L63.1395 49.0949C63.0255 49.0376 62.8829 49.0376 62.7974 49.0949L51.4213 55.6847C51.3073 55.742 51.2503 55.8852 51.2503 55.9999V69.2081C51.2503 69.3227 51.3073 69.4659 51.4213 69.5232L54.5291 71.3282C56.2113 72.1878 57.2662 71.185 57.2662 70.1822V57.1459C57.2662 56.974 57.4087 56.8021 57.6083 56.8021H59.0624C59.2335 56.8021 59.4045 56.9453 59.4045 57.1459V70.1822C59.4045 72.4456 58.1785 73.7636 56.0402 73.7636C55.3844 73.7636 54.8712 73.7636 53.4171 73.0473L50.4234 71.3282C49.6821 70.8985 49.226 70.0962 49.226 69.2367V56.0285C49.226 55.169 49.6821 54.3667 50.4234 53.937L61.7995 47.3185C62.5123 46.9174 63.4817 46.9174 64.1945 47.3185L75.5705 53.937C76.3118 54.3667 76.768 55.169 76.768 56.0285V69.2367C76.768 70.0962 76.3118 70.8985 75.5705 71.3282L64.1945 77.9467C63.8238 78.1186 63.3961 78.2045 62.997 78.2045ZM66.5039 69.1221C61.5144 69.1221 60.488 66.83 60.488 64.8817C60.488 64.7098 60.6305 64.5379 60.8301 64.5379H62.3127C62.4838 64.5379 62.6263 64.6525 62.6263 64.8244C62.8544 66.3429 63.5102 67.0879 66.5324 67.0879C68.9273 67.0879 69.9538 66.5435 69.9538 65.2542C69.9538 64.5093 69.6686 63.9649 65.9336 63.5924C62.8259 63.2773 60.8871 62.5896 60.8871 60.097C60.8871 57.7762 62.8259 56.401 66.0762 56.401C69.7257 56.401 71.5219 57.6616 71.75 60.4121C71.75 60.4981 71.7215 60.584 71.6644 60.67C71.6074 60.7273 71.5219 60.7846 71.4364 60.7846H69.9538C69.8112 60.7846 69.6686 60.67 69.6401 60.5267C69.298 58.9509 68.4141 58.4352 66.0762 58.4352C63.4532 58.4352 63.1395 59.352 63.1395 60.0397C63.1395 60.8706 63.5102 61.1284 67.0456 61.5868C70.5525 62.0453 72.2062 62.7042 72.2062 65.1682C72.1776 67.6895 70.1248 69.1221 66.5039 69.1221Z" fill="#539E43"/>
<path d="M27.6998 26.5466C27.6998 26.0309 27.4147 25.5438 26.9585 25.2859L14.8697 18.295C14.6701 18.1804 14.442 18.1231 14.2139 18.0945H14.0999C13.8718 18.0945 13.6437 18.1804 13.4441 18.295L1.35525 25.2859C0.899067 25.5438 0.613953 26.0309 0.613953 26.5466L0.642464 45.3418C0.642464 45.5996 0.785021 45.8575 1.01311 45.9721C1.2412 46.1154 1.52632 46.1154 1.7259 45.9721L8.91078 41.8463C9.36696 41.5885 9.65207 41.1014 9.65207 40.5857V31.7898C9.65207 31.274 9.93719 30.787 10.3934 30.5291L13.4441 28.7527C13.6722 28.6095 13.9288 28.5522 14.1854 28.5522C14.442 28.5522 14.6986 28.6095 14.8982 28.7527L17.9489 30.5291C18.4051 30.787 18.6902 31.274 18.6902 31.7898V40.5857C18.6902 41.1014 18.9753 41.5885 19.4315 41.8463L26.6164 45.9721C26.8445 46.1154 27.1296 46.1154 27.3577 45.9721C27.5858 45.8575 27.7283 45.5996 27.7283 45.3418L27.6998 26.5466Z" fill="white"/>
<path d="M85.8061 0.674577C85.578 0.559972 85.2929 0.559972 85.0933 0.674577C84.8652 0.817833 84.7227 1.04704 84.7227 1.3049V19.9282C84.7227 20.1001 84.6371 20.272 84.4661 20.3866C84.295 20.4726 84.1239 20.4726 83.9529 20.3866L80.9306 18.6389C80.4745 18.381 79.9327 18.381 79.4766 18.6389L67.3877 25.6584C66.9315 25.9163 66.6464 26.4034 66.6464 26.9191V40.9295C66.6464 41.4452 66.9315 41.9323 67.3877 42.1902L79.4766 49.2097C79.9327 49.4676 80.4745 49.4676 80.9306 49.2097L93.0195 42.1902C93.4757 41.9323 93.7608 41.4452 93.7608 40.9295V6.0037C93.7608 5.45933 93.4757 4.97226 93.0195 4.7144L85.8061 0.674577ZM84.6942 36.3167C84.6942 36.4599 84.6371 36.5745 84.5231 36.6318L80.3889 39.0385C80.2749 39.0958 80.1323 39.0958 80.0183 39.0385L75.8841 36.6318C75.7701 36.5745 75.7131 36.4313 75.7131 36.3167V31.5033C75.7131 31.36 75.7701 31.2454 75.8841 31.1881L80.0183 28.7814C80.1323 28.7241 80.2749 28.7241 80.3889 28.7814L84.5231 31.1881C84.6371 31.2454 84.6942 31.3887 84.6942 31.5033V36.3167Z" fill="white"/>
<path d="M126.036 31.3885C126.492 31.1307 126.749 30.6436 126.749 30.1279V26.7184C126.749 26.2027 126.463 25.7156 126.036 25.4577L114.032 18.4668C113.576 18.209 113.035 18.209 112.578 18.4668L100.489 25.4864C100.033 25.7442 99.7482 26.2313 99.7482 26.747V40.7575C99.7482 41.2732 100.033 41.7603 100.489 42.0181L112.493 48.8944C112.949 49.1523 113.491 49.1523 113.918 48.8944L121.189 44.8259C121.417 44.7113 121.559 44.4535 121.559 44.1956C121.559 43.9378 121.417 43.6799 121.189 43.5653L109.043 36.5457C108.815 36.4025 108.672 36.1733 108.672 35.9154V31.5318C108.672 31.2739 108.815 31.0161 109.043 30.9015L112.835 28.724C113.063 28.5807 113.348 28.5807 113.576 28.724L117.368 30.9015C117.596 31.0447 117.739 31.2739 117.739 31.5318V34.9699C117.739 35.2278 117.881 35.4856 118.11 35.6003C118.338 35.7435 118.623 35.7435 118.851 35.6003L126.036 31.3885Z" fill="white"/>
<path d="M113.12 30.7295C113.206 30.6722 113.32 30.6722 113.405 30.7295L115.715 32.0761C115.8 32.1334 115.857 32.2194 115.857 32.334V35.0272C115.857 35.1418 115.8 35.2277 115.715 35.285L113.405 36.6317C113.32 36.689 113.206 36.689 113.12 36.6317L110.811 35.285C110.725 35.2277 110.668 35.1418 110.668 35.0272V32.334C110.668 32.2194 110.725 32.1334 110.811 32.0761L113.12 30.7295Z" fill="#539E43"/>
<mask id="mask0_7610_223" style="mask-type:alpha" maskUnits="userSpaceOnUse" x="33" y="18" width="28" height="32">
<path d="M47.9144 18.5242C47.4582 18.2663 46.9165 18.2663 46.4603 18.5242L34.457 25.4864C34.0008 25.7443 33.7442 26.2314 33.7442 26.7471V40.7002C33.7442 41.216 34.0293 41.703 34.457 41.9609L46.4603 48.9231C46.9165 49.181 47.4582 49.181 47.9144 48.9231L59.9177 41.9609C60.3739 41.703 60.6305 41.216 60.6305 40.7002V26.7471C60.6305 26.2314 60.3454 25.7443 59.9177 25.4864L47.9144 18.5242Z" fill="white"/>
</mask>
<g mask="url(#mask0_7610_223)">
<path d="M47.9144 18.5242C47.4582 18.2663 46.9165 18.2663 46.4603 18.5242L34.457 25.4864C34.0008 25.7443 33.7442 26.2314 33.7442 26.7471V40.7002C33.7442 41.216 34.0293 41.703 34.457 41.9609L46.4603 48.9231C46.9165 49.181 47.4582 49.181 47.9144 48.9231L59.9177 41.9609C60.3739 41.703 60.6305 41.216 60.6305 40.7002V26.7471C60.6305 26.2314 60.3454 25.7443 59.9177 25.4864L47.9144 18.5242Z" fill="url(#paint0_linear_7610_223)"/>
<path d="M59.9462 25.4856L47.8859 18.5234C47.7718 18.4661 47.6293 18.4088 47.5152 18.3801L34.0008 41.6449C34.1149 41.7881 34.2574 41.9028 34.4 41.9887L46.4603 48.9509C46.8025 49.1515 47.2016 49.2088 47.5723 49.0942L60.2598 25.7721C60.1743 25.6575 60.0603 25.5716 59.9462 25.4856Z" fill="url(#paint1_linear_7610_223)"/>
<path fill-rule="evenodd" clip-rule="evenodd" d="M59.9747 41.9608C60.3169 41.7603 60.5735 41.4165 60.6875 41.044L47.4582 18.3522C47.1161 18.2949 46.7454 18.3236 46.4318 18.5242L34.457 25.4577L47.3727 49.1236C47.5437 49.095 47.7433 49.0377 47.9144 48.9517L59.9747 41.9608Z" fill="url(#paint2_linear_7610_223)"/>
<path fill-rule="evenodd" clip-rule="evenodd" d="M59.9747 41.9609L47.9429 48.9231C47.7718 49.0091 47.6008 49.0664 47.4012 49.095L47.6293 49.5248L60.9726 41.7603V41.5884L60.6305 41.0154C60.5735 41.4165 60.3169 41.7603 59.9747 41.9609Z" fill="url(#paint3_linear_7610_223)"/>
<path fill-rule="evenodd" clip-rule="evenodd" d="M59.9747 41.9609L47.9429 48.9231C47.7718 49.0091 47.6008 49.0664 47.4012 49.095L47.6293 49.5248L60.9726 41.7603V41.5884L60.6305 41.0154C60.5735 41.4165 60.3169 41.7603 59.9747 41.9609Z" fill="url(#paint4_linear_7610_223)"/>
</g>
<defs>
<linearGradient id="paint0_linear_7610_223" x1="52.0775" y1="23.7143" x2="38.8285" y2="44.43" gradientUnits="userSpaceOnUse">
<stop stop-color="#41873F"/>
<stop offset="0.3288" stop-color="#418B3D"/>
<stop offset="0.6352" stop-color="#419637"/>
<stop offset="0.9319" stop-color="#3FA92D"/>
<stop offset="1" stop-color="#3FAE2A"/>
</linearGradient>
<linearGradient id="paint1_linear_7610_223" x1="45.3648" y1="35.3569" x2="78.3884" y2="17.5028" gradientUnits="userSpaceOnUse">
<stop offset="0.1376" stop-color="#41873F"/>
<stop offset="0.4032" stop-color="#54A044"/>
<stop offset="0.7136" stop-color="#66B848"/>
<stop offset="0.9081" stop-color="#6CC04A"/>
</linearGradient>
<linearGradient id="paint2_linear_7610_223" x1="33.3058" y1="33.724" x2="61.0808" y2="33.724" gradientUnits="userSpaceOnUse">
<stop offset="0.0919165" stop-color="#6CC04A"/>
<stop offset="0.2864" stop-color="#66B848"/>
<stop offset="0.5968" stop-color="#54A044"/>
<stop offset="0.8624" stop-color="#41873F"/>
</linearGradient>
<linearGradient id="paint3_linear_7610_223" x1="33.3058" y1="45.2935" x2="61.0808" y2="45.2935" gradientUnits="userSpaceOnUse">
<stop offset="0.0919165" stop-color="#6CC04A"/>
<stop offset="0.2864" stop-color="#66B848"/>
<stop offset="0.5968" stop-color="#54A044"/>
<stop offset="0.8624" stop-color="#41873F"/>
</linearGradient>
<linearGradient id="paint4_linear_7610_223" x1="65.1273" y1="23.0546" x2="58.0241" y2="60.0937" gradientUnits="userSpaceOnUse">
<stop stop-color="#41873F"/>
<stop offset="0.3288" stop-color="#418B3D"/>
<stop offset="0.6352" stop-color="#419637"/>
<stop offset="0.9319" stop-color="#3FA92D"/>
<stop offset="1" stop-color="#3FAE2A"/>
</linearGradient>
</defs>
</svg>
