<svg width="88" height="79" viewBox="0 0 88 79" fill="none" xmlns="http://www.w3.org/2000/svg">
<path d="M0.691895 39.4243C0.691895 45.9272 7.10063 51.9978 17.2045 55.4196C15.1869 65.484 16.8429 73.5958 22.3743 76.7566C28.06 80.0053 36.5303 77.7565 44.5698 70.7936C52.4064 77.4754 60.3268 80.1051 65.853 76.9352C71.5332 73.6771 73.2609 65.0151 71.1875 54.6367C81.7112 51.1892 87.5979 46.0128 87.5979 39.4243C87.5979 33.0722 81.1773 27.5768 71.2097 24.1769C73.4418 13.3695 71.5505 5.45453 65.7901 2.16316C60.2365 -1.00992 52.2242 1.75575 44.2723 8.6126C35.9998 1.33459 28.0666 -0.887474 22.3118 2.41348C16.7636 5.59559 15.1803 13.8548 17.2045 24.1055C7.4418 27.4781 0.691895 33.0976 0.691895 39.4243Z" fill="white"/>
<path d="M69.0985 27.5533C68.2978 27.2802 67.4682 27.0219 66.614 26.7775C66.7544 26.2098 66.8832 25.6494 66.9978 25.0985C68.8785 16.053 67.6488 8.76581 63.4498 6.36657C59.4235 4.06601 52.8387 6.46471 46.1884 12.1991C45.5489 12.7506 44.9076 13.3344 44.2666 13.9462C43.8395 13.5414 43.4131 13.1502 42.9878 12.776C36.0181 6.64439 29.032 4.06043 24.8371 6.46662C20.8146 8.77384 19.6234 15.6245 21.3164 24.197C21.4798 25.025 21.6709 25.8706 21.887 26.7303C20.8983 27.0084 19.9438 27.3049 19.0305 27.6202C10.8593 30.443 5.64075 34.8668 5.64075 39.4556C5.64075 44.1948 11.2428 48.9484 19.7538 51.8307C20.4254 52.0582 21.1224 52.2732 21.8406 52.4774C21.6075 53.4072 21.4047 54.3184 21.2345 55.2071C19.6203 63.6309 20.8809 70.3197 24.8926 72.6123C29.0364 74.98 35.9909 72.5463 42.7627 66.6812C43.298 66.2176 43.8351 65.7259 44.3732 65.2106C45.0707 65.876 45.7671 66.5059 46.4598 67.0966C53.0191 72.6894 59.4975 74.9477 63.5056 72.6487C67.6453 70.2742 68.9906 63.0889 67.244 54.3467C67.1106 53.6791 66.9554 52.997 66.781 52.3028C67.2694 52.1597 67.7489 52.012 68.2164 51.8585C77.0643 48.9538 82.8211 44.2581 82.8211 39.4556C82.8211 34.8502 77.4343 30.3965 69.0985 27.5533Z" fill="#53C1DE"/>
<path d="M67.1794 48.7574C66.7574 48.8959 66.3244 49.0297 65.8831 49.1594C64.9063 46.0955 63.588 42.8375 61.9748 39.4714C63.5143 36.1854 64.7816 32.9691 65.731 29.925C66.5205 30.1514 67.2869 30.3902 68.0253 30.6421C75.1674 33.0782 79.524 36.6801 79.524 39.4554C79.524 42.4117 74.819 46.2493 67.1794 48.7574ZM64.0095 54.9811C64.7819 58.8467 64.8922 62.3417 64.3806 65.0739C63.9209 67.529 62.9965 69.1658 61.8535 69.8213C59.4212 71.2163 54.2197 69.403 48.6101 64.6201C47.967 64.0718 47.3192 63.4863 46.6694 62.8667C48.8441 60.5101 51.0176 57.7704 53.1389 54.7277C56.87 54.3997 60.3951 53.8634 63.5917 53.1312C63.7492 53.7605 63.889 54.3776 64.0095 54.9811ZM31.9533 69.5803C29.5769 70.4118 27.6842 70.4356 26.5401 69.782C24.1056 68.3907 23.0935 63.0203 24.474 55.8163C24.6322 54.9913 24.8204 54.1438 25.0373 53.2775C28.199 53.9702 31.6982 54.4687 35.4382 54.7691C37.5738 57.7465 39.81 60.4831 42.0636 62.8794C41.5713 63.3504 41.0808 63.7987 40.5931 64.2213C37.5986 66.8147 34.5978 68.6548 31.9533 69.5803ZM20.8201 48.7393C17.0568 47.4648 13.9488 45.8084 11.8185 44.0009C9.90421 42.3765 8.93774 40.7639 8.93774 39.4554C8.93774 36.6708 13.1277 33.1191 20.1158 30.705C20.9637 30.4121 21.8513 30.136 22.7725 29.8767C23.7382 32.9895 25.0052 36.244 26.5341 39.5349C24.9854 42.8747 23.7005 46.1811 22.7252 49.3303C22.0685 49.1433 21.4323 48.9465 20.8201 48.7393ZM24.5521 23.5695C23.1016 16.2248 24.0649 10.6842 26.489 9.29383C29.0711 7.81272 34.7807 9.92447 40.7985 15.2188C41.1832 15.5572 41.5693 15.9114 41.9566 16.2778C39.7141 18.6636 37.4983 21.3797 35.3817 24.3395C31.7519 24.6729 28.2773 25.2084 25.0826 25.9254C24.8818 25.1249 24.7039 24.3384 24.5521 23.5695ZM57.8442 31.7147C57.0805 30.4077 56.2965 29.1316 55.4972 27.8903C57.9597 28.1988 60.3191 28.6082 62.5347 29.1093C61.8696 31.2216 61.0405 33.4301 60.0645 35.6942C59.3644 34.3772 58.624 33.0494 57.8442 31.7147ZM44.2677 18.6126C45.7885 20.245 47.3115 22.0677 48.8095 24.0452C47.3 23.9746 45.7718 23.9378 44.2309 23.9378C42.7046 23.9378 41.1877 23.9738 39.6875 24.0432C41.187 22.084 42.7232 20.2638 44.2677 18.6126ZM30.6043 31.7373C29.8415 33.048 29.1147 34.3686 28.4256 35.6917C27.4655 33.4356 26.6441 31.2169 25.9731 29.0747C28.1752 28.5864 30.5234 28.1872 32.9703 27.8846C32.1598 29.1373 31.3693 30.4228 30.6043 31.7371V31.7373ZM33.0408 51.2593C30.5127 50.9798 28.1292 50.6012 25.9277 50.1264C26.6093 47.9459 27.4489 45.6799 28.4293 43.3751C29.1202 44.6972 29.8499 46.0184 30.6174 47.332H30.6175C31.3994 48.6702 32.2094 49.981 33.0408 51.2593ZM44.359 60.5286C42.7963 58.858 41.2376 57.0101 39.7152 55.0223C41.193 55.0798 42.6997 55.1092 44.2309 55.1092C45.8041 55.1092 47.3592 55.074 48.8899 55.0065C47.387 57.0301 45.8695 58.8809 44.359 60.5286ZM60.096 43.2577C61.1276 45.5873 61.9972 47.8415 62.6876 49.9848C60.4499 50.4906 58.0338 50.898 55.4881 51.2008C56.2893 49.9427 57.0802 48.6447 57.8574 47.3095C58.6436 45.9587 59.3901 44.6058 60.096 43.2577ZM55.0014 45.6774C53.7949 47.7501 52.5563 49.7288 51.2989 51.5965C49.0086 51.7587 46.6425 51.8423 44.2309 51.8423C41.8291 51.8423 39.4928 51.7684 37.2431 51.6237C35.935 49.7315 34.6694 47.747 33.4706 45.6953H33.4709C32.2753 43.6491 31.1749 41.5857 30.1778 39.5338C31.1746 37.4772 32.2721 35.4115 33.4609 33.369L33.4606 33.3694C34.6525 31.3215 35.9069 29.3467 37.203 27.4663C39.4983 27.2944 41.8521 27.2047 44.2308 27.2047H44.2309C46.6204 27.2047 48.9771 27.2951 51.2718 27.4685C52.548 29.3351 53.7939 31.3035 54.9905 33.3517C56.2007 35.4229 57.3124 37.4749 58.3177 39.4874C57.3154 41.5345 56.2062 43.6072 55.0014 45.6774ZM61.8029 9.19664C64.3875 10.6734 65.3925 16.6292 63.7687 24.439C63.6651 24.9373 63.5485 25.4449 63.4218 25.9593C60.2198 25.2273 56.7427 24.6825 53.1022 24.3441C50.9815 21.3518 48.7838 18.6315 46.5779 16.2763C47.171 15.711 47.7632 15.172 48.353 14.6633C54.051 9.7501 59.3765 7.81027 61.8029 9.19664Z" fill="white"/>
<path d="M44.2309 32.6267C48.0372 32.6267 51.1229 35.684 51.1229 39.4554C51.1229 43.2267 48.0372 46.2841 44.2309 46.2841C40.4247 46.2841 37.339 43.2267 37.339 39.4554C37.339 35.684 40.4247 32.6267 44.2309 32.6267Z" fill="#53C1DE"/>
</svg>
