<svg width="30" height="30" viewBox="0 0 30 30" fill="none" xmlns="http://www.w3.org/2000/svg">
<path d="M15.0002 30C23.2865 30 30.0002 23.2863 30.0002 15C30.0002 6.71375 23.2865 0 15.0002 0C6.71399 0 0.000244141 6.71375 0.000244141 15C0.000244141 23.2863 6.71399 30 15.0002 30ZM6.86399 14.675L21.3265 9.09875C21.9977 8.85625 22.584 9.2625 22.3665 10.2775L22.3677 10.2762L19.9052 21.8775C19.7227 22.7 19.234 22.9 18.5502 22.5125L14.8002 19.7487L12.9915 21.4913C12.7915 21.6913 12.6227 21.86 12.2352 21.86L12.5015 18.0438L19.4515 11.765C19.754 11.4987 19.384 11.3488 18.9852 11.6138L10.3965 17.0212L6.69399 15.8663C5.89024 15.6112 5.87274 15.0625 6.86399 14.675Z" fill="white"/>
</svg>
